<svg xmlns="http://www.w3.org/2000/svg" viewBox="0 0 712.09 52.39"><defs><style>.cls-1{fill:#fff;}.cls-2{fill:none;stroke:#fff;stroke-miterlimit:10;}</style></defs><g id="圖層_2" data-name="圖層 2"><g id="圖層_1-2" data-name="圖層 1"><polygon class="cls-1" points="87.29 5.13 107.09 11.08 123.85 0 123.59 18.52 140.66 29.21 120.69 34.71 114.48 52.39 102.41 37.27 81.49 37.51 94 22.67 87.29 5.13"/><polygon class="cls-2" points="312.03 10.06 322.45 16.81 334.63 13.04 330.6 23.89 338.41 32.98 325.51 32.95 318.15 42.34 314.21 31.46 301.85 28.17 312.32 21.48 312.03 10.06"/><polygon class="cls-1" points="527.29 28.93 518.13 30.05 513.98 37.38 509.94 30.01 500.79 28.78 507.46 23.1 505.95 15.01 514.11 18.87 522.33 15.11 520.71 23.17 527.29 28.93"/><polygon class="cls-2" points="710.86 28.55 695.68 32.66 690.9 46.06 681.8 34.55 665.93 34.66 675.48 23.44 670.46 10.11 685.46 14.69 698.23 6.33 697.95 20.39 710.86 28.55"/><line class="cls-2" y1="26.2" x2="69.13" y2="26.2"/><line class="cls-2" x1="168.15" y1="26.61" x2="212.05" y2="25.78"/><line class="cls-2" x1="220.46" y1="26.2" x2="249.42" y2="26.2"/><line class="cls-2" x1="259.7" y1="26.2" x2="288.66" y2="26.2"/><line class="cls-2" x1="424.11" y1="26.2" x2="493.24" y2="26.2"/><line class="cls-2" x1="346.19" y1="26.2" x2="375.15" y2="26.2"/><line class="cls-2" x1="385.42" y1="26.2" x2="414.38" y2="26.2"/><line class="cls-2" x1="539.49" y1="26.61" x2="583.39" y2="25.78"/><line class="cls-2" x1="591.8" y1="26.2" x2="620.76" y2="26.2"/><line class="cls-2" x1="631.04" y1="26.2" x2="660" y2="26.2"/></g></g></svg>