<svg xmlns="http://www.w3.org/2000/svg" viewBox="0 0 195.96 138.7"><defs><style>.cls-1{fill:none;stroke:#fff;stroke-miterlimit:10;stroke-width:2px;}.cls-2{fill:#fff;}</style></defs><g id="圖層_2" data-name="圖層 2"><g id="圖層_1-2" data-name="圖層 1"><path class="cls-1" d="M47.53,1.67a33.83,33.83,0,0,1,2.83,7.89c4.23,19-8.71,37.62-28.9,41.6A39.47,39.47,0,0,1,2,50.09C9.19,64.41,26.12,72.78,43.34,69.38c20.19-4,33.13-22.6,28.9-41.59C69.42,15.13,59.69,5.5,47.53,1.67Z"/><polygon class="cls-1" points="120.64 35.19 145.6 61.78 183.02 57.52 163.86 88.06 179.73 120.23 142.94 112.52 115.32 136.67 111.75 101.36 78.8 84.11 113.39 70 120.64 35.19"/><polygon class="cls-1" points="154.73 27.39 159.84 30.18 165.19 27.8 163.95 33.24 168.01 37.28 162.13 37.85 159.3 42.74 156.9 37.65 151.09 36.63 155.49 32.91 154.73 27.39"/><polygon class="cls-2" points="187.73 71.94 190.85 73.33 193.84 71.7 193.39 74.93 195.96 77.1 192.57 77.7 191.16 80.67 189.51 77.81 186.08 77.47 188.45 75.11 187.73 71.94"/><polygon class="cls-2" points="82.82 102.92 87.16 104.3 90.84 101.72 90.78 106.04 94.52 108.53 90.15 109.81 88.78 113.93 86.14 110.41 81.55 110.46 84.3 107 82.82 102.92"/><polygon class="cls-2" points="91.47 42.8 94.08 43.97 96.59 42.61 96.22 45.31 98.37 47.14 95.52 47.64 94.34 50.13 92.96 47.73 90.08 47.45 92.07 45.47 91.47 42.8"/><polygon class="cls-2" points="92.02 65.75 93.85 66.33 95.4 65.24 95.38 67.06 96.96 68.11 95.11 68.65 94.54 70.39 93.42 68.9 91.49 68.93 92.64 67.47 92.02 65.75"/><polygon class="cls-2" points="159.04 122.57 161.05 126.4 165.55 127.02 162.29 130 163.06 134.21 159.04 132.22 155.02 134.21 155.79 130 152.53 127.02 157.03 126.4 159.04 122.57"/></g></g></svg>