<svg xmlns="http://www.w3.org/2000/svg" viewBox="0 0 28.33 28.97"><defs><style>.cls-1{fill:#fff;}</style></defs><g id="圖層_2" data-name="圖層 2"><g id="圖層_1-2" data-name="圖層 1"><path class="cls-1" d="M19.47,6H8.85A3.18,3.18,0,0,0,5.67,9.17V19.79A3.18,3.18,0,0,0,8.85,23h3.86V16.49H11.12V14.92h1.59V13.54a3.2,3.2,0,0,1,.92-2.42A3.25,3.25,0,0,1,16,10.23a3.83,3.83,0,0,1,1.23.17v1.66a2.53,2.53,0,0,0-1-.23c-1,0-1.5.6-1.5,1.81v1.28h2.16v1.57H14.68V23h4.79a3.19,3.19,0,0,0,3.19-3.19V9.17A3.18,3.18,0,0,0,19.47,6Z"/><path class="cls-1" d="M27.37.4a.55.55,0,0,1,.55.55V28a.55.55,0,0,1-.55.56H1A.56.56,0,0,1,.4,28V1A.55.55,0,0,1,1,.4H27.37m0-.4H1A1,1,0,0,0,0,1V28a1,1,0,0,0,1,1H27.37a1,1,0,0,0,1-1V1a1,1,0,0,0-1-.95Z"/></g></g></svg>