<svg xmlns="http://www.w3.org/2000/svg" viewBox="0 0 28.33 28.97"><defs><style>.cls-1{fill:#fff;}</style></defs><g id="圖層_2" data-name="圖層 2"><g id="圖層_1-2" data-name="圖層 1"><path class="cls-1" d="M19.47,6H8.85A3.18,3.18,0,0,0,5.67,9.17V19.79A3.18,3.18,0,0,0,8.85,23H19.47a3.19,3.19,0,0,0,3.19-3.19V9.17A3.18,3.18,0,0,0,19.47,6ZM14.16,19.05a4.57,4.57,0,1,1,4.57-4.57A4.56,4.56,0,0,1,14.16,19.05Zm4.52-9.24a.8.8,0,0,1-.8-.8.79.79,0,0,1,.8-.79.79.79,0,0,1,.79.79A.79.79,0,0,1,18.68,9.81Z"/><circle class="cls-1" cx="14.09" cy="14.44" r="3.56"/><path class="cls-1" d="M27.37.4a.55.55,0,0,1,.55.55V28a.55.55,0,0,1-.55.56H1A.56.56,0,0,1,.4,28V1A.55.55,0,0,1,1,.4H27.37m0-.4H1A1,1,0,0,0,0,1V28a1,1,0,0,0,1,1H27.37a1,1,0,0,0,1-1V1a1,1,0,0,0-1-.95Z"/></g></g></svg>