<svg xmlns="http://www.w3.org/2000/svg" viewBox="0 0 28.33 28.97"><defs><style>.cls-1{fill:#fff;}</style></defs><g id="圖層_2" data-name="圖層 2"><g id="圖層_1-2" data-name="圖層 1"><path class="cls-1" d="M27.37.4a.55.55,0,0,1,.55.55V28a.55.55,0,0,1-.55.56H1A.56.56,0,0,1,.4,28V1A.55.55,0,0,1,1,.4H27.37m0-.4H1A1,1,0,0,0,0,1V28a1,1,0,0,0,1,1H27.37a1,1,0,0,0,1-1V1a1,1,0,0,0-1-.95Z"/><path class="cls-1" d="M14.27,5C9.05,5,4.81,8.64,4.81,13.19c0,4.1,3.45,7.5,8,8.13L11.68,24l4.91-2.85c4.1-.9,7.14-4.13,7.14-8C23.73,8.64,19.49,5,14.27,5ZM10.91,15.53H8.59V11.28h.66V15h1.66Zm1.28-3.71h0V15h0v.54h-.66V15h0V11.82h0v-.54h.66Zm4.63,3.71h-.74l-2-3.14a1.77,1.77,0,0,1-.16-.29h0a4.09,4.09,0,0,1,0,.62v2.81h-.64V11.28H14l2,3.07.18.31h0a4.6,4.6,0,0,1,0-.61V11.28h.64Zm3.42,0H17.88V11.28h2.26v.56h-1.6v1.25H20v.57H18.54V15h1.7Z"/></g></g></svg>