<svg xmlns="http://www.w3.org/2000/svg" viewBox="0 0 28.33 28.97"><defs><style>.cls-1{fill:#fff;}</style></defs><g id="圖層_2" data-name="圖層 2"><g id="圖層_1-2" data-name="圖層 1"><path class="cls-1" d="M20.63,7.27A3.94,3.94,0,0,0,13.87,11a11.23,11.23,0,0,1-4.54-.66A11.35,11.35,0,0,1,4.5,6.82a5.44,5.44,0,0,0-.07,4.24c.35.73.94,1.35.82,1.48s-1-.44-1.71-1A5.14,5.14,0,0,0,4.8,15c.89.92,2.14,1.31,2.08,1.48s-.3.1-1.34-.14a4.16,4.16,0,0,0,1.64,2.22c1.06.67,2.09.47,2.15.82S8,20.55,6.51,20.87c-1.88.4-3.2,0-3.27.22s1.45,1.05,3.05,1.49a12.76,12.76,0,0,0,4.16.44c.83-.05,7.46-.6,10.4-6.09A11.45,11.45,0,0,0,22,10.17l3.05-1.49-3.64-.07L23.6,6.08Z"/><path class="cls-1" d="M27.37.4a.55.55,0,0,1,.55.55V28a.55.55,0,0,1-.55.56H1A.56.56,0,0,1,.4,28V1A.55.55,0,0,1,1,.4H27.37m0-.4H1A1,1,0,0,0,0,1V28a1,1,0,0,0,1,1H27.37a1,1,0,0,0,1-1V1a1,1,0,0,0-1-.95Z"/></g></g></svg>