<svg xmlns="http://www.w3.org/2000/svg" viewBox="0 0 275.01 26"><defs><style>.cls-1{fill:#fff;}.cls-2{fill:none;stroke:#fff;stroke-miterlimit:10;stroke-width:2px;}</style></defs><g id="圖層_2" data-name="圖層 2"><g id="圖層_1-2" data-name="圖層 1"><polygon class="cls-1" points="33.52 2.54 41.13 5.5 47.56 0 47.46 9.19 54.02 14.5 46.35 17.22 43.97 26 39.33 18.5 31.3 18.61 36.1 11.25 33.52 2.54"/><polygon class="cls-2" points="119.83 4.99 123.83 8.34 128.51 6.47 126.96 11.86 129.96 16.37 125.01 16.35 122.19 21.01 120.67 15.61 115.92 13.98 119.94 10.66 119.83 4.99"/><polygon class="cls-1" points="202.5 14.36 198.98 14.91 197.39 18.55 195.84 14.89 192.32 14.28 194.89 11.46 194.31 7.45 197.44 9.37 200.6 7.5 199.97 11.5 202.5 14.36"/><polygon class="cls-2" points="273 14.17 267.17 16.21 265.33 22.86 261.84 17.14 255.75 17.2 259.41 11.63 257.49 5.02 263.25 7.29 268.15 3.14 268.04 10.12 273 14.17"/><line class="cls-2" y1="13" x2="26.55" y2="13"/><line class="cls-2" x1="64.58" y1="13.21" x2="81.44" y2="12.79"/><line class="cls-2" x1="84.67" y1="13" x2="95.79" y2="13"/><line class="cls-2" x1="99.73" y1="13" x2="110.86" y2="13"/><line class="cls-2" x1="162.88" y1="13" x2="189.42" y2="13"/><line class="cls-2" x1="132.95" y1="13" x2="144.07" y2="13"/><line class="cls-2" x1="148.02" y1="13" x2="159.14" y2="13"/><line class="cls-2" x1="207.19" y1="13.21" x2="224.05" y2="12.79"/><line class="cls-2" x1="227.28" y1="13" x2="238.4" y2="13"/><line class="cls-2" x1="242.35" y1="13" x2="253.47" y2="13"/></g></g></svg>