<svg xmlns="http://www.w3.org/2000/svg" viewBox="0 0 85 58.61"><defs><style>.cls-1{fill:none;stroke:#fff;stroke-miterlimit:10;stroke-width:2px;}.cls-2{fill:#fff;}</style></defs><g id="圖層_2" data-name="圖層 2"><g id="圖層_1-2" data-name="圖層 1"><path class="cls-1" d="M21.5,1.65a13.2,13.2,0,0,1,1.21,3.21c1.81,7.74-3.73,15.33-12.36,17A17.61,17.61,0,0,1,2,21.37c3.1,5.84,10.34,9.25,17.71,7.86,8.64-1.62,14.17-9.2,12.36-16.94A15,15,0,0,0,21.5,1.65Z"/><polygon class="cls-1" points="52.78 15.3 63.46 26.14 79.47 24.4 71.27 36.84 78.06 49.95 62.32 46.81 50.5 56.65 48.97 42.26 34.88 35.23 49.68 29.48 52.78 15.3"/><polygon class="cls-1" points="67.36 12.13 69.55 13.26 71.84 12.29 71.31 14.51 73.05 16.16 70.53 16.39 69.32 18.38 68.29 16.31 65.81 15.89 67.69 14.38 67.36 12.13"/><polygon class="cls-2" points="81.48 30.27 82.82 30.84 84.1 30.18 83.91 31.49 85 32.38 83.55 32.62 82.95 33.83 82.25 32.67 80.78 32.53 81.79 31.57 81.48 30.27"/><polygon class="cls-2" points="36.6 42.9 38.46 43.46 40.03 42.41 40 44.17 41.61 45.18 39.73 45.7 39.15 47.38 38.02 45.95 36.06 45.97 37.23 44.56 36.6 42.9"/><polygon class="cls-2" points="40.3 18.41 41.42 18.88 42.49 18.33 42.33 19.43 43.25 20.17 42.03 20.37 41.53 21.39 40.94 20.41 39.7 20.3 40.56 19.49 40.3 18.41"/><polygon class="cls-2" points="40.53 27.75 41.32 27.99 41.98 27.55 41.97 28.29 42.65 28.72 41.86 28.94 41.61 29.64 41.13 29.04 40.31 29.05 40.8 28.45 40.53 27.75"/><polygon class="cls-2" points="69.21 50.9 70.07 52.46 71.99 52.72 70.6 53.93 70.93 55.65 69.21 54.84 67.49 55.65 67.82 53.93 66.42 52.72 68.35 52.46 69.21 50.9"/></g></g></svg>