<svg xmlns="http://www.w3.org/2000/svg" viewBox="0 0 46.09 31.97"><defs><style>.cls-1{fill:none;stroke:#fff;stroke-miterlimit:10;stroke-width:1.09px;}.cls-2{fill:#fff;}</style></defs><g id="圖層_2" data-name="圖層 2"><g id="圖層_1-2" data-name="圖層 1"><path class="cls-1" d="M11.66.9a6.93,6.93,0,0,1,.65,1.75c1,4.22-2,8.36-6.7,9.24a9.53,9.53,0,0,1-4.52-.23,8.94,8.94,0,0,0,9.6,4.28c4.68-.88,7.68-5,6.7-9.24A8.13,8.13,0,0,0,11.66.9Z"/><polygon class="cls-1" points="28.62 8.35 34.4 14.26 43.09 13.31 38.64 20.09 42.32 27.24 33.79 25.53 27.38 30.9 26.55 23.05 18.91 19.22 26.93 16.08 28.62 8.35"/><polygon class="cls-1" points="36.52 6.61 37.71 7.23 38.95 6.7 38.66 7.91 39.6 8.81 38.24 8.94 37.58 10.02 37.03 8.89 35.68 8.67 36.7 7.84 36.52 6.61"/><polygon class="cls-2" points="44.18 16.51 44.9 16.82 45.59 16.46 45.49 17.18 46.09 17.66 45.3 17.79 44.97 18.45 44.59 17.82 43.79 17.74 44.34 17.22 44.18 16.51"/><polygon class="cls-2" points="19.84 23.4 20.85 23.7 21.7 23.13 21.69 24.09 22.56 24.64 21.54 24.93 21.23 25.84 20.61 25.06 19.55 25.07 20.18 24.3 19.84 23.4"/><polygon class="cls-2" points="21.85 10.04 22.45 10.3 23.04 9.99 22.95 10.6 23.45 11 22.79 11.11 22.52 11.67 22.2 11.13 21.53 11.07 21.99 10.63 21.85 10.04"/><polygon class="cls-2" points="21.98 15.14 22.4 15.27 22.76 15.03 22.76 15.43 23.12 15.66 22.69 15.78 22.56 16.17 22.3 15.84 21.85 15.84 22.12 15.52 21.98 15.14"/><polygon class="cls-2" points="37.52 27.76 37.99 28.61 39.03 28.75 38.28 29.41 38.46 30.35 37.52 29.91 36.59 30.35 36.77 29.41 36.01 28.75 37.06 28.61 37.52 27.76"/></g></g></svg>