<svg xmlns="http://www.w3.org/2000/svg" viewBox="0 0 20 20"><defs><style>.cls-1{fill:#fff;}</style></defs><g id="圖層_2" data-name="圖層 2"><g id="圖層_1-2" data-name="圖層 1"><path class="cls-1" d="M13.75,4.13H6.25A2.23,2.23,0,0,0,4,6.33v7.34a2.23,2.23,0,0,0,2.25,2.2H9V11.39H7.85V10.3H9v-1a2.21,2.21,0,0,1,.65-1.67,2.32,2.32,0,0,1,1.66-.62,2.68,2.68,0,0,1,.87.12V8.33a1.71,1.71,0,0,0-.72-.16c-.71,0-1.06.41-1.06,1.25v.88h1.52v1.09H10.37v4.48h3.38A2.23,2.23,0,0,0,16,13.67V6.33A2.23,2.23,0,0,0,13.75,4.13Z"/><path class="cls-1" d="M19.33.28a.38.38,0,0,1,.39.39V19.33a.38.38,0,0,1-.39.39H.67a.38.38,0,0,1-.39-.39V.67A.38.38,0,0,1,.67.28H19.33m0-.28H.67A.67.67,0,0,0,0,.67V19.33A.67.67,0,0,0,.67,20H19.33a.67.67,0,0,0,.67-.67V.67A.67.67,0,0,0,19.33,0Z"/></g></g></svg>