<svg xmlns="http://www.w3.org/2000/svg" viewBox="0 0 20 20"><defs><style>.cls-1{fill:#fff;}</style></defs><g id="圖層_2" data-name="圖層 2"><g id="圖層_1-2" data-name="圖層 1"><path class="cls-1" d="M13.75,4.13H6.25A2.23,2.23,0,0,0,4,6.33v7.34a2.23,2.23,0,0,0,2.25,2.2h7.5A2.23,2.23,0,0,0,16,13.67V6.33A2.23,2.23,0,0,0,13.75,4.13Zm-3.75,9A3.15,3.15,0,1,1,13.23,10,3.18,3.18,0,0,1,10,13.15Zm3.19-6.38a.55.55,0,0,1-.56-.55.56.56,0,0,1,1.12,0A.55.55,0,0,1,13.19,6.77Z"/><ellipse class="cls-1" cx="9.95" cy="9.97" rx="2.51" ry="2.46"/><path class="cls-1" d="M19.33.28a.38.38,0,0,1,.39.39V19.33a.38.38,0,0,1-.39.39H.67a.38.38,0,0,1-.39-.39V.67A.38.38,0,0,1,.67.28H19.33m0-.28H.67A.67.67,0,0,0,0,.67V19.33A.67.67,0,0,0,.67,20H19.33a.67.67,0,0,0,.67-.67V.67A.67.67,0,0,0,19.33,0Z"/></g></g></svg>