<svg xmlns="http://www.w3.org/2000/svg" viewBox="0 0 20 20"><defs><style>.cls-1{fill:#fff;}</style></defs><g id="圖層_2" data-name="圖層 2"><g id="圖層_1-2" data-name="圖層 1"><path class="cls-1" d="M19.33.28a.38.38,0,0,1,.39.39V19.33a.38.38,0,0,1-.39.39H.67a.38.38,0,0,1-.39-.39V.67A.38.38,0,0,1,.67.28H19.33m0-.28H.67A.67.67,0,0,0,0,.67V19.33A.67.67,0,0,0,.67,20H19.33a.67.67,0,0,0,.67-.67V.67A.67.67,0,0,0,19.33,0Z"/><path class="cls-1" d="M10.08,3.42C6.39,3.42,3.4,6,3.4,9.11c0,2.83,2.43,5.18,5.61,5.61l-.76,1.86,3.46-2c2.9-.62,5.05-2.86,5.05-5.51C16.76,6,13.76,3.42,10.08,3.42ZM7.7,10.72H6.07V7.79h.46v2.54H7.7Zm.91-2.56h0v2.19h0v.37H8.14v-.37h0V8.16h0V7.79h.47Zm3.27,2.56h-.52L9.92,8.56a1.08,1.08,0,0,1-.11-.21h0a2.26,2.26,0,0,1,0,.43v1.94H9.36V7.79h.55L11.3,9.91a1.76,1.76,0,0,1,.13.21h0a3.87,3.87,0,0,1,0-.42V7.79h.46Zm2.41,0H12.63V7.79h1.59v.39H13.09V9h1.05v.39H13.09v.9h1.2Z"/></g></g></svg>