<svg xmlns="http://www.w3.org/2000/svg" viewBox="0 0 20 20"><defs><style>.cls-1{fill:#fff;}</style></defs><g id="圖層_2" data-name="圖層 2"><g id="圖層_1-2" data-name="圖層 1"><path class="cls-1" d="M14.57,5A2.89,2.89,0,0,0,11,4.51,2.72,2.72,0,0,0,9.79,7.58a8.07,8.07,0,0,1-3.2-.46A7.89,7.89,0,0,1,3.18,4.71a3.66,3.66,0,0,0-.05,2.93c.24.5.66.93.57,1S3,8.36,2.5,8a3.49,3.49,0,0,0,.89,2.36c.62.64,1.51.91,1.47,1s-.21.07-1-.1a3,3,0,0,0,1.16,1.54c.75.46,1.48.32,1.52.56s-1,.81-2,1c-1.33.28-2.26,0-2.31.15s1,.72,2.15,1a9.24,9.24,0,0,0,2.94.31c.58,0,5.27-.42,7.34-4.21A7.73,7.73,0,0,0,15.56,7l2.15-1-2.57,0L16.67,4.2Z"/><path class="cls-1" d="M19.33.28a.38.38,0,0,1,.39.39V19.33a.38.38,0,0,1-.39.39H.67a.38.38,0,0,1-.39-.39V.67A.38.38,0,0,1,.67.28H19.33m0-.28H.67A.67.67,0,0,0,0,.67V19.33A.67.67,0,0,0,.67,20H19.33a.67.67,0,0,0,.67-.67V.67A.67.67,0,0,0,19.33,0Z"/></g></g></svg>