<svg xmlns="http://www.w3.org/2000/svg" width="251" height="48.374" viewBox="0 0 251 48.374"><g transform="translate(0.5 0.531)"><path d="M295.984,179.568a23.618,23.618,0,1,0,23.786,23.617A23.729,23.729,0,0,0,295.984,179.568Zm0,37.812a14.2,14.2,0,1,1,14.3-14.2A14.262,14.262,0,0,1,295.984,217.38Z" transform="translate(-272.197 -179.534)" fill="#eb3300" stroke="rgba(0,0,0,0)" stroke-miterlimit="10" stroke-width="1"/><path d="M418.046,179.568a23.618,23.618,0,1,0,23.786,23.617A23.729,23.729,0,0,0,418.046,179.568Zm0,37.812a14.2,14.2,0,1,1,14.3-14.2A14.263,14.263,0,0,1,418.046,217.38Z" transform="translate(-291.685 -179.534)" fill="#eb3300" stroke="rgba(0,0,0,0)" stroke-miterlimit="10" stroke-width="1"/><path d="M376.917,182.389h0a4.769,4.769,0,0,0-6.71-.047l-13.385,13.1-13.385-13.1a4.769,4.769,0,0,0-6.71.047h0a4.688,4.688,0,0,0,.047,6.663l15.3,14.98v17.111a4.728,4.728,0,0,0,4.744,4.712h0a4.728,4.728,0,0,0,4.745-4.712V204.033l15.3-14.981A4.687,4.687,0,0,0,376.917,182.389Z" transform="translate(-282.281 -179.769)" fill="#eb3300" stroke="rgba(0,0,0,0)" stroke-miterlimit="10" stroke-width="1"/><path d="M486.1,203.144h0a4.728,4.728,0,0,0,4.745,4.712h8.742a14.253,14.253,0,1,1-4.778-15.948,6.632,6.632,0,0,0,4.026,1.441h0a4.5,4.5,0,0,0,3.04-7.848,23.811,23.811,0,0,0-39.284,14c-2.38,15.726,11.028,29.5,26.774,27.042,16.081-2.507,19.685-15.485,20.415-22.9a4.743,4.743,0,0,0-4.732-5.211h-14.2A4.728,4.728,0,0,0,486.1,203.144Z" transform="translate(-302.55 -179.528)" fill="#eb3300" stroke="rgba(0,0,0,0)" stroke-miterlimit="10" stroke-width="1"/><path d="M563.714,185.509h0a4.728,4.728,0,0,0-4.745-4.711H536.99c-2.62,0-4.744,2.109-4.744,4.182v35.693c0,3.13,2.124,5.24,4.744,5.24h21.979a4.728,4.728,0,0,0,4.745-4.711h0a4.728,4.728,0,0,0-4.745-4.712H541.734v-8.953h13.892a4.728,4.728,0,0,0,4.744-4.712h0a4.728,4.728,0,0,0-4.744-4.711H541.734v-7.9h17.235A4.728,4.728,0,0,0,563.714,185.509Z" transform="translate(-313.715 -179.738)" fill="#eb3300" stroke="rgba(0,0,0,0)" stroke-miterlimit="10" stroke-width="1"/></g></svg>