<svg xmlns="http://www.w3.org/2000/svg" viewBox="0 0 1450 210"><defs><style>.cls-1{opacity:0.05;}.cls-2{fill:#fff;}.cls-3{fill:#e6dee5;}</style></defs><g id="レイヤー_2" data-name="レイヤー 2"><g id="レイヤー_1-2" data-name="レイヤー 1"><path class="cls-1" d="M949.91,210H490V10H970s-1.82,173.62-1.82,181.81S957.81,210,949.91,210Z"/><polygon class="cls-1" points="485 210 10 210 10 10 490 10 485 210"/><polygon class="cls-1" points="1450 210 972 210 970 10 1450 10 1450 210"/><path class="cls-2" d="M939.91,200H480V0H960s-1.82,173.62-1.82,181.81S947.81,200,939.91,200Z"/><path class="cls-3" d="M958.18,181.81c0,8.19-10.37,18.19-18.27,18.19A12,12,0,0,0,948,190c3,1,6.23-1.23,8-3A8.93,8.93,0,0,0,958.18,181.81Z"/><polygon class="cls-2" points="475 200 0 200 0 0 480 0 475 200"/><polygon class="cls-2" points="1440 200 962 200 960 0 1440 0 1440 200"/></g></g></svg>