<svg xmlns="http://www.w3.org/2000/svg" width="1400" height="588.281" viewBox="0 0 1400 588.281"><path d="M18554.854,19801c18.842-125.352,119.809-226.059,245.189-244.684a296.189,296.189,0,0,1,110.2,4.094V19682.7a174.476,174.476,0,0,0-65.584-12.723c-108.807,0-194.908,99.129-172.73,211.813,13.469,68.379,68.471,123.52,136.83,137.09,36.158,7.18,70.932,3.207,101.484-9.084v122.07q-12.24,2.795-25.35,4.863a289.554,289.554,0,0,1-45.01,3.537C18666.1,20140.256,18527.809,19980.943,18554.854,19801Zm-1043.613,330.9V20009.23a175.236,175.236,0,0,0,67.973,13.637c97.164,0,176.232-79.062,176.232-176.232s-79.068-176.236-176.232-176.236a175.236,175.236,0,0,0-67.973,13.637v-122.668a293.077,293.077,0,0,1,67.973-7.951c161.678,0,293.2,131.537,293.2,293.219s-131.525,293.215-293.2,293.215A293.077,293.077,0,0,1,17511.24,20131.9Zm635.121-65.225v-212.436l-188.641-185.986a58.495,58.495,0,0,1,82.133-83.311l165,162.662,164.98-162.662a58.495,58.495,0,0,1,82.139,83.3l-188.635,185.992v212.436a58.486,58.486,0,1,1-116.973,0Zm756.783-161.971a58.491,58.491,0,0,1,0-116.982h7.1V19904.7Z" transform="translate(-17510.74 -19552.484)" fill="#f53c08" stroke="rgba(0,0,0,0)" stroke-width="1"/></svg>