<svg xmlns="http://www.w3.org/2000/svg" viewBox="0 0 21.45 17.14"><defs><style>.cls-1{fill:#ffc518;}.cls-2{fill:#d95c5e;}.cls-3{fill:#19a261;}.cls-4{fill:#4483ee;}</style></defs><g id="圖層_2" data-name="圖層 2"><g id="圖層_1-2" data-name="圖層 1"><polygon class="cls-1" points="2.01 5.74 12.71 5.74 11.96 2.89 11.6 1.54 4.5 3.42 0 4.61 1.93 11.89 2.01 11.87 2.01 5.74"/><polygon class="cls-2" points="17.5 4.36 11.96 2.89 12.55 5.14 18.63 5.14 18.63 15 18.89 15.07 21.45 5.4 17.5 4.36"/><polygon class="cls-3" points="4.5 0 4.5 3.42 11.6 1.54 11.96 2.89 17.5 4.36 17.5 0 4.5 0"/><path class="cls-4" d="M1.63,5.14v12h17v-12Zm6.51,8.91a3.65,3.65,0,0,1-1.83.45,2.53,2.53,0,0,1-1.9-.72,2.65,2.65,0,0,1-.72-1.95A2.71,2.71,0,0,1,6.51,9,3.83,3.83,0,0,1,8,9.28v.84a2.9,2.9,0,0,0-1.52-.38,1.82,1.82,0,0,0-1.37.56,2.05,2.05,0,0,0-.53,1.48,2.08,2.08,0,0,0,.49,1.48,1.72,1.72,0,0,0,1.33.53,1.88,1.88,0,0,0,.93-.21V12.25H6.18v-.7h2Zm8.48-.27h-5v-.5h5Zm0-2h-5v-.5h5Zm0-2h-5v-.5h5Z"/></g></g></svg>