<svg xmlns="http://www.w3.org/2000/svg" viewBox="0 0 21 21"><defs><style>.cls-1{fill:none;stroke:#2d2d2d;stroke-miterlimit:10;}</style></defs><g id="圖層_2" data-name="圖層 2"><g id="圖層_1-2" data-name="圖層 1"><path class="cls-1" d="M16.75.5H4.25A3.75,3.75,0,0,0,.5,4.25v12.5A3.75,3.75,0,0,0,4.25,20.5h12.5a3.75,3.75,0,0,0,3.75-3.75V4.25A3.75,3.75,0,0,0,16.75.5Zm-6.6,15.4a5,5,0,0,1-5-4.89,5,5,0,0,1,5-4.89,5,5,0,0,1,5,4.89A5,5,0,0,1,10.15,15.9ZM15.81,5a.94.94,0,1,1,.94-.94A.93.93,0,0,1,15.81,5Z"/></g></g></svg>