<svg xmlns="http://www.w3.org/2000/svg" viewBox="0 0 256 67.76"><defs><style>.cls-1{fill:#ff65a5;}</style></defs><g id="圖層_2" data-name="圖層 2"><g id="圖層_1-2" data-name="圖層 1"><path class="cls-1" d="M24.52,32.2c2.45-1.67,4.65-5.55,4.65-11.82,0-7.53-3.28-14.3-11.28-14.3H0V61.35H17.67c8.16,0,12.61-6.55,12.61-16.52C30.28,38,27.52,33.87,24.52,32.2Zm-16-15.37h7.81c2.48,0,4.1,1.67,4.1,5.35,0,3-.95,5.29-4.15,5.29H8.47Zm7.94,33.83H8.47V38.15h8.19c3.12,0,4.59,2.15,4.59,6.06C21.25,49,19.43,50.66,16.41,50.66Z"/><polygon class="cls-1" points="55.87 38.52 73.19 38.52 73.19 26.97 55.87 26.97 55.87 17.64 74.09 17.64 74.09 6.08 47.32 6.08 47.32 61.35 74.16 61.35 75.14 49.79 55.87 49.79 55.87 38.52"/><path class="cls-1" d="M160.2,37.14c0,10.56-2.54,13.52-6.38,13.52-3.67,0-6.84-2.82-6.84-13.52V5.52h-8.62V37.6c0,17.4,6,24.31,15.26,24.31,9.46,0,15.2-7.54,15.2-24.51V5.52H160.2Z"/><polygon class="cls-1" points="179.82 17.58 190.71 17.58 190.71 61.35 199.33 61.35 199.33 17.58 210.17 17.58 210.17 6.08 179.82 6.08 179.82 17.58"/><path class="cls-1" d="M246.72,6.08c-2.87,8.32-6.47,18.34-8.07,23.78-1.59-5.56-5-15.4-7.89-23.78H220.62L233.56,40a4.49,4.49,0,0,1,.4,1.91V61.35h8.65V42.06a4,4,0,0,1,.21-1.6L256,6.08Z"/><path class="cls-1" d="M102.29,6.08,89.85,61.35H101l3.44-6.22a10.19,10.19,0,0,1-6.37-9.33c.14-5.71,6.14-10.86,13.11-9.61a10.44,10.44,0,0,1,7,9.61A10.26,10.26,0,0,1,112.13,55q1.82,3.15,3.61,6.31h10.75L113.38,6.08Z"/><path class="cls-1" d="M40.08,2.55c0,.18.11.33.2.33s.15,0,.18-.31V2a4.18,4.18,0,0,0-.93-2s-.07.12-.07.18a.3.3,0,0,0,0,.15A6.74,6.74,0,0,1,40.08,2.55Z"/><path class="cls-1" d="M37.64,19a6.39,6.39,0,0,0,2.8-2.9,10.84,10.84,0,0,0,.61-2.16l.18-1.16h3.55c.1,0,.19-.15.19-.41a.52.52,0,0,0-.07-.31l-.53-1-.53,1.06H41.29L41.38,11c0-.1,0-.18.12-.18s.12-.09.12-.23a.33.33,0,0,0-.2-.33L41,10c0,.78,0,1.49-.06,2.1H37.58l.07.64h3.19l-.12.87A6.67,6.67,0,0,1,39,17.43a7.14,7.14,0,0,1-1.43,1.24s-.05.06-.05.15S37.55,19,37.64,19Z"/><path class="cls-1" d="M41.54,14.51a.24.24,0,0,0,.06.16,10.48,10.48,0,0,1,2.58,4.17c.13.14.14.16.16.16s.19-.16.19-.55c0-1.8-2.76-4.19-2.92-4.19S41.54,14.43,41.54,14.51Z"/><path class="cls-1" d="M37.84,9l.07.61h6.57c.11,0,.19-.12.19-.39a.65.65,0,0,0-.06-.32l-.54-1L43.54,9H41.38V6.71h2.38c.12,0,.19-.16.19-.4A.58.58,0,0,0,43.89,6l-.53-1L42.82,6.1H41.38V3.75h3c.08,0,.18-.1.18-.38A.66.66,0,0,0,44.51,3l-.53-1-.54,1.08H42.12l.24-.75.36-1.33L42.85,1c.08,0,.12-.16.12-.27a.42.42,0,0,0-.13-.32L42.35,0l0,.59-.17,1.27-.29,1.28H38l.06.61H41V6.1h-2.4l.07.61H41V9Z"/><path class="cls-1" d="M42.65,37.4a31.07,31.07,0,0,1-.8-4.19c-.3-2.24-.47-5.65-.47-6.06l.07-1.71c0-.1,0-.18.12-.18s.11-.09.11-.23a.35.35,0,0,0-.19-.35l-.46-.2a65.52,65.52,0,0,1-.89,12.39,16.24,16.24,0,0,1-2.67,6.2s0,.08,0,.14,0,.17.07.17a9.37,9.37,0,0,0,1.78-2.8c.82-1.83,1.4-3.75,1.83-8.53l.18-2.77a55.14,55.14,0,0,0,1,8.08c.91,3.77,2.12,5.57,2.18,5.57s.07-.08.12-.25.16-.34.29-.36.22-.09.22-.15,0-.14,0-.16A9.58,9.58,0,0,1,42.65,37.4Z"/><path class="cls-1" d="M44.35,49l-.21.66h-6l-.38-.78V67.29c0,.3,0,.47.08.47.26-.15.33-.21.33-.47v-.45h6c0,.82,0,.92.12.92a.38.38,0,0,0,.3-.39v-17a.26.26,0,0,1,.09-.2.54.54,0,0,0,.12-.39.39.39,0,0,0,0-.21Zm-.21,17.23h-6v-16h6Z"/><path class="cls-1" d="M39.82,58.86v5.37c0,1,.26,1,.39,1H43c.18,0,.29-.49.29-.88A.54.54,0,0,0,43.2,64a2.18,2.18,0,0,1-.11-.77l0-1.23c0-.12,0-.18-.07-.18s-.07.06-.07.16l-.13,1.49c0,.43-.1.7-.17.72H40.35c-.1-.11-.12-.13-.12-.39V59.66h1.52v.51l0,.63c0,.39-.06.77-.26.77a1.21,1.21,0,0,1-.48-.16c-.08,0-.11.08-.11.25s0,.18.08.2a1.2,1.2,0,0,1,.53,1.1,1.71,1.71,0,0,0,.6-1l.09-.77L42.2,60a.31.31,0,0,1,.11-.28.58.58,0,0,0,.13-.43.5.5,0,0,0-.15-.41L42,58.39l-.17.65H40.22l-.3-.43c.16-.42.31-.91.47-1.42h1.32c.43.3,1,1.26,1.58,3.42,0,.09.09.25.18.25s.19-.2.19-.43l0-.53a7.11,7.11,0,0,0-1.42-2.71h1.46c.1,0,.17-.25.17-.43a.78.78,0,0,0-.06-.31l-.43-1-.46,1.1H40.54l.16-.73.22-1.21h2.17c.12,0,.18-.26.18-.42a.75.75,0,0,0-.06-.31l-.44-1L42.31,54H41l.29-2,.11-.08c.1,0,.12-.22.12-.28a.27.27,0,0,0-.13-.27L41,51l0,.64c0,.75-.15,1.55-.27,2.36H39l.06.61h1.49l-.12.72-.26,1.22h-1.6l.07.62H40A11.58,11.58,0,0,1,38.31,61a.12.12,0,0,0,0,.1c0,.07,0,.19.07.19A5.93,5.93,0,0,0,39.82,58.86Z"/><path class="cls-1" d="M42.81,52.12A.1.1,0,0,1,42.9,52l.1,0c.08,0,.12-.24.12-.3a.58.58,0,0,0-.11-.31l-.4-.59A16,16,0,0,1,42,53.27a.29.29,0,0,0,0,.14s0,.1.05.1A6,6,0,0,0,42.81,52.12Z"/><path class="cls-1" d="M39.72,53.21c0,.18.12.26.19.26s.19-.08.19-.49a2.23,2.23,0,0,0-.37-1.24,1.9,1.9,0,0,0-.53-.66c-.07,0-.09.15-.09.23a.18.18,0,0,0,0,.14A4.94,4.94,0,0,1,39.72,53.21Z"/></g></g></svg>