<svg xmlns="http://www.w3.org/2000/svg" viewBox="0 0 50 50"><defs><style>.cls-1{fill:#dcdddd;}.cls-2{fill:#ea6098;}</style></defs><g id="圖層_2" data-name="圖層 2"><g id="圖層_1-2" data-name="圖層 1"><path class="cls-1" d="M25,0A25,25,0,1,0,50,25,25,25,0,0,0,25,0Zm8,25.49a3,3,0,0,1-4.24,0L28,24.78v8.76a3,3,0,0,1-6,0V24.78l-.71.71a3,3,0,0,1-4.24-4.25l7.78-7.78.17.18.17-.18L33,21.24A3,3,0,0,1,33,25.49Z"/><path class="cls-2" d="M33,21.24l-7.78-7.78-.17.18-.17-.18-7.78,7.78a3,3,0,0,0,4.24,4.25l.71-.71v8.76a3,3,0,0,0,6,0V24.78l.71.71A3,3,0,0,0,33,21.24Z"/></g></g></svg>