<svg xmlns="http://www.w3.org/2000/svg" viewBox="0 0 19.72 22.06"><defs><style>.cls-1{font-size:10.52px;font-family:MicrosoftJhengHeiUIBold, Microsoft JhengHei UI;}.cls-2{letter-spacing:-0.09em;}.cls-3{fill:#fff;}</style></defs><g id="圖層_2" data-name="圖層 2"><g id="圖層_1-2" data-name="圖層 1"><text class="cls-1" transform="translate(0.44 9.36)"><tspan class="cls-2">Y</tspan><tspan x="5.5" y="0">ou</tspan></text><path d="M12.39,16a1.19,1.19,0,0,0-.92.4,1.49,1.49,0,0,0-.36,1V18a1.24,1.24,0,0,0,.34.89,1.1,1.1,0,0,0,.84.37,1.11,1.11,0,0,0,1-.47,2.25,2.25,0,0,0,.34-1.3,1.73,1.73,0,0,0-.32-1.1A1.06,1.06,0,0,0,12.39,16Z"/><path d="M17.55,16a1.07,1.07,0,0,0-.78.33,1.6,1.6,0,0,0-.41.89h2.22a1.37,1.37,0,0,0-.27-.91A.94.94,0,0,0,17.55,16Z"/><path d="M16.43,11.54H3.29a3.29,3.29,0,0,0-3,1.94H4.74v.86H2.89v5.6h-1v-5.6H.05a3.87,3.87,0,0,0,0,.49v4a3.28,3.28,0,0,0,3.29,3.28H16.43a3.28,3.28,0,0,0,3.29-3.28v-4A3.29,3.29,0,0,0,16.43,11.54Zm-7.68,8.4h-1v-.72h0a1.56,1.56,0,0,1-1.42.83c-1.09,0-1.63-.65-1.63-2V15.33h1V18c0,.86.33,1.3,1,1.3a1,1,0,0,0,.8-.36A1.41,1.41,0,0,0,7.78,18V15.33h1ZM14,19.35a1.86,1.86,0,0,1-1.52.7,1.48,1.48,0,0,1-1.35-.73h0v.62h-1V13.11h1v3h0a1.73,1.73,0,0,1,1.56-.87,1.7,1.7,0,0,1,1.38.61,2.6,2.6,0,0,1,.5,1.67A2.84,2.84,0,0,1,14,19.35Zm5.52-1.45H16.36a1.28,1.28,0,0,0,1.42,1.39,2.3,2.3,0,0,0,1.4-.46v.81a2.9,2.9,0,0,1-1.62.41A2.08,2.08,0,0,1,16,19.42a2.45,2.45,0,0,1-.58-1.75A2.56,2.56,0,0,1,16,15.91a2,2,0,0,1,1.57-.69,1.81,1.81,0,0,1,1.45.59,2.34,2.34,0,0,1,.52,1.62Z"/><polygon class="cls-3" points="1.88 19.94 2.89 19.94 2.89 14.34 4.74 14.34 4.74 13.48 0.3 13.48 0.03 13.48 0.03 14.34 0.05 14.34 1.88 14.34 1.88 19.94"/><path class="cls-3" d="M7.78,18a1.41,1.41,0,0,1-.31.93,1,1,0,0,1-.8.36c-.66,0-1-.44-1-1.3V15.33h-1v2.76c0,1.31.54,2,1.63,2a1.56,1.56,0,0,0,1.42-.83h0v.72h1V15.33h-1Z"/><path class="cls-3" d="M12.7,15.22a1.73,1.73,0,0,0-1.56.87h0v-3h-1v6.83h1v-.62h0a1.48,1.48,0,0,0,1.35.73,1.86,1.86,0,0,0,1.52-.7,2.84,2.84,0,0,0,.57-1.85,2.6,2.6,0,0,0-.5-1.67A1.7,1.7,0,0,0,12.7,15.22Zm.54,3.58a1.11,1.11,0,0,1-1,.47,1.1,1.1,0,0,1-.84-.37,1.24,1.24,0,0,1-.34-.89v-.58a1.49,1.49,0,0,1,.36-1,1.19,1.19,0,0,1,.92-.4,1.06,1.06,0,0,1,.87.4,1.73,1.73,0,0,1,.32,1.1A2.25,2.25,0,0,1,13.24,18.8Z"/><path class="cls-3" d="M17.56,15.22a2,2,0,0,0-1.57.69,2.56,2.56,0,0,0-.62,1.76A2.45,2.45,0,0,0,16,19.42a2.08,2.08,0,0,0,1.61.63,2.9,2.9,0,0,0,1.62-.41v-.81a2.3,2.3,0,0,1-1.4.46,1.28,1.28,0,0,1-1.42-1.39h3.17v-.47A2.34,2.34,0,0,0,19,15.81,1.81,1.81,0,0,0,17.56,15.22Zm-1.2,2a1.6,1.6,0,0,1,.41-.89,1.07,1.07,0,0,1,.78-.33.94.94,0,0,1,.76.31,1.37,1.37,0,0,1,.27.91Z"/></g></g></svg>